<svg xmlns="http://www.w3.org/2000/svg" xmlns:xlink="http://www.w3.org/1999/xlink" viewBox="0 0 1227.98 997.06"><defs><linearGradient id="a5413de5-6856-4553-aed2-069c78051258" x1="461.53" y1="36.04" x2="194.51" y2="608.67" gradientUnits="userSpaceOnUse"><stop offset="0" stop-color="#58d1bd"/><stop offset=".11" stop-color="#58d1b8"/><stop offset=".23" stop-color="#58d1a9"/><stop offset=".37" stop-color="#58d191"/><stop offset=".52" stop-color="#58d16f"/><stop offset=".55" stop-color="#58d166"/><stop offset="1" stop-color="#36ba28"/></linearGradient><linearGradient id="acd79b63-0414-4b08-9e10-b17ada9d87b4" x1="1043.48" y1="28.92" x2="760.44" y2="635.88" xlink:href="#a5413de5-6856-4553-aed2-069c78051258"/><linearGradient id="bccf5203-ccae-4f6e-ab33-f2d4b8dd7697" x1="948.45" y1="201.91" x2="911.16" y2="281.87" xlink:href="#a5413de5-6856-4553-aed2-069c78051258"/><linearGradient id="b910ac8d-9bac-4d5a-a47d-cbfeee9edd42" x1="948.45" y1="350.1" x2="911.16" y2="430.06" xlink:href="#a5413de5-6856-4553-aed2-069c78051258"/><style>.a2233592-4068-47e9-beae-bf64ada5131e{fill:#33a828}.a2c46fcd-4a53-49d3-b6d9-85328c1cf290{fill:#36ba28}</style></defs><g id="bb41c4c8-63fb-426c-b8e8-7b2d2534b37b" data-name="Слой 2"><g id="e513f0cd-182c-45cd-a540-5f659ac1597b" data-name="Слой 1"><path d="M596.63 332.24v161.88a138.31 138.31 0 0 1-138.31 138.31H316.17q-60.09 0-112.45-20.32t-92.89-54.71A313.33 313.33 0 0 1 43 476.66a307.15 307.15 0 0 1-37.36-99.19 330.56 330.56 0 0 1-2.28-107.93q7.73-55.08 37.82-107.89t73.28-88.33q43.26-35.55 93.35-53.26a324.45 324.45 0 0 1 103.8-18.68A315.35 315.35 0 0 1 511.5 68.3c29.44 22.77 41.88 37.48 66.29 71.9l-2.7 1.62c-51.34 30.71-106.22 43.09-157.29 11.91-3.6-2.21-7.26-4.26-11-6.21q-45.09-23.2-93.34-22.3t-92.89 25q-44.58 24.15-71.93 72.4t-25 98.79q2.28 50.54 26.43 92t67.38 68.3q43.26 26.82 98.79 26.86H413a60.75 60.75 0 0 0 60.75-60.75v-12.58a31.37 31.37 0 0 0-31.37-31.37H308.49A27.83 27.83 0 0 1 280.66 376v-10a2.54 2.54 0 0 1 2.54-2.54h119.2a15.4 15.4 0 0 0 15.4-15.39v-10a15.4 15.4 0 0 0-15.4-15.39H283.77a3.11 3.11 0 0 1-3.11-3.11v-15.65a24.47 24.47 0 0 1 23.64-24.47c63.47-2.13 235.54-11.71 276.08-53.49a.24.24 0 0 1 .38.28 370.63 370.63 0 0 1-38 50.09 2.21 2.21 0 0 0 1.62 3.71 52.2 52.2 0 0 1 52.25 52.2Z" style="fill:url(#a5413de5-6856-4553-aed2-069c78051258)"/><path d="M1202.94 193.06a320.06 320.06 0 0 0-168-168Q977.56 0 912 0H776.61a110.49 110.49 0 0 0-110.49 110.49v411A110.48 110.48 0 0 0 776.61 632H912q65.58 0 122.94-24.58a313 313 0 0 0 100.18-67.84 329 329 0 0 0 67.84-100.64q25-57.36 25-122.91t-25.02-122.97ZM1089.1 390.67a194.88 194.88 0 0 1-102.88 102.42A186.41 186.41 0 0 1 912 508.14h-63.1A58.94 58.94 0 0 1 790 449.2V182.77a58.94 58.94 0 0 1 58.94-58.94H912a186.41 186.41 0 0 1 74.24 15 193.64 193.64 0 0 1 102.86 102.93 186.44 186.44 0 0 1 15.05 74.24q0 40-15.05 74.67Z" style="fill:url(#acd79b63-0414-4b08-9e10-b17ada9d87b4)"/><circle cx="929.8" cy="241.89" r="44.1" style="fill:url(#bccf5203-ccae-4f6e-ab33-f2d4b8dd7697)"/><circle cx="929.8" cy="390.08" r="44.1" style="fill:url(#b910ac8d-9bac-4d5a-a47d-cbfeee9edd42)"/><path d="M122.1 804.25h14.67v58H90.64a50.59 50.59 0 0 1-18.49-3.34 53 53 0 0 1-15.28-9 51.51 51.51 0 0 1-11.16-13.31 50.66 50.66 0 0 1-6.14-16.32 54.11 54.11 0 0 1-.37-17.75 49.64 49.64 0 0 1 6.21-17.75 51.58 51.58 0 0 1 12.06-14.53 51 51 0 0 1 15.35-8.76 53.64 53.64 0 0 1 17.07-3.07 52 52 0 0 1 17.23 2.58 52.52 52.52 0 0 1 15.65 8.39 50.13 50.13 0 0 1 12.36 14.15l-17.53 10.53a29.89 29.89 0 0 0-12-11.61 31.79 31.79 0 0 0-15.36-3.67 33.09 33.09 0 0 0-15.27 4.12 31.75 31.75 0 0 0-16 28.16 31.93 31.93 0 0 0 15.42 26.36 30.2 30.2 0 0 0 16.25 4.42h25.91v-17.23H84.8v-20.37ZM204.62 758.27a29.77 29.77 0 0 1 12.06 2.47 31.43 31.43 0 0 1 16.47 16.55 30.11 30.11 0 0 1 2.47 12.13v5.7a30.08 30.08 0 0 1-1.72 10.11 32.56 32.56 0 0 1-4.72 8.83A31.41 31.41 0 0 1 222 821a29.1 29.1 0 0 1-9.28 4.27l22.91 37H212l-22.47-35.94h-15.17v35.94H154v-104h50.62Zm10.63 31.15a10.4 10.4 0 0 0-3.14-7.63 10.24 10.24 0 0 0-7.49-3.15h-30.26v27.26h30.26a10.24 10.24 0 0 0 7.49-3.15 10.4 10.4 0 0 0 3.14-7.63ZM285.8 758.27H325v20.37h-59.27V799h49.12v20.37h-49.12v22.47H325v20.36h-79.64V758.27ZM376 758.27h39.2v20.37h-59.31V799H405v20.37h-49.11v22.47h59.31v20.36h-79.68V758.27ZM490.23 758.27h20.37v103.94h-20.37L446.05 796v66.19h-20.37V758.27h20.37l44.18 66.05v-66.05ZM620.83 758.27a50.08 50.08 0 0 1 20.22 4.12A52.68 52.68 0 0 1 668.69 790a51.68 51.68 0 0 1 0 40.44A54.12 54.12 0 0 1 657.53 847a51.49 51.49 0 0 1-16.48 11.16 50.71 50.71 0 0 1-20.22 4H580.4V758.27Zm0 83.58a30.6 30.6 0 0 0 12.17-2.48 31.84 31.84 0 0 0 10.11-6.81 32.22 32.22 0 0 0 6.81-10A31.47 31.47 0 0 0 650 798a31.9 31.9 0 0 0-17-16.89 30.6 30.6 0 0 0-12.21-2.47h-20.03v63.21ZM735.26 758.27a29.77 29.77 0 0 1 12.06 2.47 32 32 0 0 1 9.81 6.67 31.57 31.57 0 0 1 6.66 9.88 30.12 30.12 0 0 1 2.48 12.13v5.7a30.09 30.09 0 0 1-1.73 10.11 32.81 32.81 0 0 1-4.71 8.83 31.62 31.62 0 0 1-7.19 6.89 29.25 29.25 0 0 1-9.29 4.27l22.92 37H742.6l-22.47-35.94H705v35.94h-20.36V758.27h50.62Zm10.64 31.15a10.37 10.37 0 0 0-3.15-7.63 10.22 10.22 0 0 0-7.49-3.15H705v27.26h30.25a10.22 10.22 0 0 0 7.49-3.15 10.37 10.37 0 0 0 3.15-7.63ZM816.29 758.27h23.06l40.44 103.94h-23.06l-7.79-20.06H806.7l-7.79 20.06h-23.06Zm-1.65 63.51H841l-13.18-33.85ZM955.73 804.25h14.67v58h-46.13a50.59 50.59 0 0 1-18.49-3.34 53 53 0 0 1-15.28-9 51.51 51.51 0 0 1-11.16-13.27 50.66 50.66 0 0 1-6.14-16.32 54.11 54.11 0 0 1-.37-17.75 49.64 49.64 0 0 1 6.17-17.79 51.58 51.58 0 0 1 12.06-14.53 51 51 0 0 1 15.35-8.76 53.64 53.64 0 0 1 17.07-3.07 51.94 51.94 0 0 1 17.27 2.58 52.52 52.52 0 0 1 15.65 8.39 50.13 50.13 0 0 1 12.36 14.15l-17.53 10.49a29.89 29.89 0 0 0-12.05-11.61 31.76 31.76 0 0 0-15.36-3.67 33.09 33.09 0 0 0-15.27 4.12 31.75 31.75 0 0 0-15.95 28.16 31.93 31.93 0 0 0 15.4 26.4 30.2 30.2 0 0 0 16.25 4.42h25.91v-17.23h-31.73v-20.37ZM1035.11 758.27a50.71 50.71 0 0 1 20.22 4.05A52.21 52.21 0 0 1 1083 790a52.62 52.62 0 0 1 0 40.44 51.54 51.54 0 0 1-11.16 16.48 54.24 54.24 0 0 1-16.55 11.16 51.79 51.79 0 0 1-40.44 0 52.65 52.65 0 0 1-27.64-27.64 51.79 51.79 0 0 1 0-40.44 54.24 54.24 0 0 1 11.16-16.55 51.46 51.46 0 0 1 16.48-11.15 50.71 50.71 0 0 1 20.26-4.03Zm0 83.58a31 31 0 0 0 12.35-2.48 31.55 31.55 0 0 0 10-6.76 32.13 32.13 0 0 0 6.74-10 30.59 30.59 0 0 0 2.47-12.31 31.15 31.15 0 0 0-2.47-12.39 31.87 31.87 0 0 0-6.74-10 31.55 31.55 0 0 0-10-6.76 31 31 0 0 0-12.35-2.48 30.42 30.42 0 0 0-12.28 2.48 31.64 31.64 0 0 0-16.7 16.81 31.15 31.15 0 0 0-2.47 12.39 30.59 30.59 0 0 0 2.47 12.31 31.83 31.83 0 0 0 16.7 16.74 30.42 30.42 0 0 0 12.28 2.45ZM1166.91 758.27h20.37v103.94h-20.37L1122.73 796v66.19h-20.37V758.27h20.37l44.18 66.05v-66.05Z" class="a2233592-4068-47e9-beae-bf64ada5131e"/><path d="M81.84 988.56A28.88 28.88 0 0 0 97.6 984a30.29 30.29 0 0 0 10.86-12l7.34 3.24a38.13 38.13 0 0 1-13.8 15.51 36.48 36.48 0 0 1-20.19 6 36.9 36.9 0 0 1-14.74-3A37.77 37.77 0 0 1 55 985.32 38.57 38.57 0 0 1 46.86 973a39.17 39.17 0 0 1-3-15.08 39.56 39.56 0 0 1 3-15.13A38.79 38.79 0 0 1 55 930.44a37.93 37.93 0 0 1 12.08-8.35 37.06 37.06 0 0 1 14.74-3A36.55 36.55 0 0 1 102 925a38.16 38.16 0 0 1 13.77 15.5l-7.34 3.23A29.87 29.87 0 0 0 97.6 931.8a29.48 29.48 0 0 0-37 4.38 31.22 31.22 0 0 0 0 43.41 28.68 28.68 0 0 0 21.24 8.97ZM208 920.58v74.81h-8v-33.33h-39.4v33.33h-8v-74.81h8v33.23H200v-33.23ZM304.13 995.39h-8.67L290 981.57h-30.9l-5.46 13.82H245l29.57-74.86Zm-17.39-22-12.19-30.89-12.18 30.89ZM379 970a29.77 29.77 0 0 1 9.69 10.75 30.47 30.47 0 0 1 3.62 14.55h-8.06a21.72 21.72 0 0 0-6.25-15.61 20.69 20.69 0 0 0-15.35-6.52h-13.52v22.22h-8.05v-74.81h25.7A24.55 24.55 0 0 1 385 928.3a25.62 25.62 0 0 1 7.54 18.57A26.58 26.58 0 0 1 379 970Zm-29.89-41.22v36.11h17.65a16.81 16.81 0 0 0 12.49-5.27 18.38 18.38 0 0 0 0-25.52 16.75 16.75 0 0 0-12.49-5.32ZM505.46 957.88a38.76 38.76 0 0 1-3 15.13 38 38 0 0 1-20.19 20.66 36.93 36.93 0 0 1-29.53 0 37.13 37.13 0 0 1-12.08-8.29 38 38 0 0 1-8.12-12.38 39.52 39.52 0 0 1 8.11-42.57 37.13 37.13 0 0 1 12.08-8.29 37.14 37.14 0 0 1 36.92 4.22A37.84 37.84 0 0 1 503.27 945h-9a29.48 29.48 0 0 0-10.76-12.52 29 29 0 0 0-36.92 4 30.78 30.78 0 0 0 0 42.83 29.1 29.1 0 0 0 38.78 2.69 29.82 29.82 0 0 0 10.51-15.6h-28.31v-8.56ZM589.22 987.15v8.24h-43.6v-74.81h43.6v8.24h-35.54v24.84h28.66v8.24h-28.66v25.25ZM729.26 988l-5.92 5.53-7.85-8.87-2.75 2.81-.57.58a23.62 23.62 0 0 1-17.28 7.35 23.18 23.18 0 0 1-17.14-7.2 25.4 25.4 0 0 1-.15-35.26 25.88 25.88 0 0 1 5.61-4.28l-1.12-1.41-.16-.21a16.07 16.07 0 0 1-3.21-9.81 16.27 16.27 0 0 1 4.69-11.74 15.58 15.58 0 0 1 11.43-4.9 15.32 15.32 0 0 1 11.37 4.8 7.78 7.78 0 0 1 .87.94l-6.07 5.37-.41-.47a7.79 7.79 0 0 0-5.76-2.45 7.87 7.87 0 0 0-5.77 2.51 8.13 8.13 0 0 0-2.39 5.89 8 8 0 0 0 2 5.43l27 30.26 3.47-3.5 4.35-4.37 5.61 5.74-8 8.14Zm-19.18-9.34L688.87 955a16.43 16.43 0 0 0-5.56 3.76 17 17 0 0 0 .05 23.63 15.46 15.46 0 0 0 11.22 4.85 15.62 15.62 0 0 0 11.32-4.38l.36-.36a2.4 2.4 0 0 1 .41-.37ZM808.12 995.39v-74.81h24.53a35.06 35.06 0 0 1 14.22 3 36.46 36.46 0 0 1 11.63 8 38 38 0 0 1 7.8 41 36.43 36.43 0 0 1-7.85 11.85 35.73 35.73 0 0 1-11.58 8 35.27 35.27 0 0 1-14.22 3Zm24.58-8.24a27.34 27.34 0 0 0 20.09-8.56 29.57 29.57 0 0 0 0-41.21 27.11 27.11 0 0 0-20.09-8.56h-17v58.33ZM946.19 970a29.77 29.77 0 0 1 9.69 10.75 30.47 30.47 0 0 1 3.62 14.55h-8.06a21.72 21.72 0 0 0-6.32-15.65 20.69 20.69 0 0 0-15.35-6.52h-13.46v22.22h-8.06v-74.77H934a24.54 24.54 0 0 1 18.21 7.72 25.62 25.62 0 0 1 7.54 18.57A26.58 26.58 0 0 1 946.19 970Zm-29.88-41.22v36.11H934a16.81 16.81 0 0 0 12.49-5.27 18.38 18.38 0 0 0 0-25.52 16.75 16.75 0 0 0-12.49-5.28ZM999.86 995.39v-74.81h8.06v74.81ZM1075.05 975.1l21.58-54.52h8.67l-30.25 76.48-30.18-76.48h8.66ZM1185.79 987.15v8.24h-43.6v-74.81h43.6v8.24h-35.54v24.84h28.66v8.24h-28.66v25.25Z" class="a2c46fcd-4a53-49d3-b6d9-85328c1cf290"/></g></g></svg>